<svg width="77" height="115" viewBox="0 0 77 115" fill="none" xmlns="http://www.w3.org/2000/svg">
<path d="M19.1692 81.0304L38.2737 61.9259L50.0966 50.0966L38.2737 38.2737L37.8397 37.8397L0 0V30.9597L19.1369 50.0966L0 69.2334V100.2V114.821H19.1369V81.0628L19.1692 81.0304Z" fill="#D9D9D9"/>
<path d="M75.4132 1.94349V112.852L57.9219 95.464L57.896 19.4737L75.3873 1.98236M76.1971 0.0388697L57.0862 19.1369L57.125 95.8139L76.223 114.821V0L76.1971 0.0388697Z" fill="#D9D9D9"/>
<path d="M37.1331 1.94349V112.852L19.6417 95.464L19.6223 19.4737L37.1137 1.98236M37.9299 0.0388697L18.8125 19.1369L18.8514 95.8139L37.9429 114.821V0L37.9299 0.0388697Z" fill="#D9D9D9"/>
<path d="M37.9753 76.6316L57.1122 57.4948V95.7685L37.9753 76.6316Z" fill="#D9D9D9"/>
</svg>
