<svg width="124" height="186" viewBox="0 0 124 186" fill="none" xmlns="http://www.w3.org/2000/svg">
<path d="M31.0157 131.107L61.9267 100.196L81.056 81.056L61.9267 61.9267L61.2244 61.2244L0 0V50.0927L30.9633 81.056L0 112.019V162.122V185.78H30.9633V131.159L31.0157 131.107Z" fill="#000033"/>
<path d="M122.018 3.14455V182.594L93.7174 154.46L93.6755 31.5084L121.976 3.20744M123.287 0.062891L92.3652 30.9633L92.4281 155.026L123.329 185.78V0L123.287 0.062891Z" fill="#000033"/>
<path d="M60.0812 3.14455V182.594L31.7803 154.46L31.7488 31.5084L60.0498 3.20744M61.3705 0.062891L30.4386 30.9633L30.5015 155.026L61.3914 185.78V0L61.3705 0.062891Z" fill="#000033"/>
<path d="M61.4438 123.99L92.4072 93.0264V154.953L61.4438 123.99Z" fill="#000033"/>
</svg>
