<svg width="424" height="47" viewBox="0 0 424 47" fill="none" xmlns="http://www.w3.org/2000/svg">
  <path d="M0 42.6094V0.483512H3.92853L19.5218 36.7468H18.9778L34.5106 0.483512H38.4391V42.6094H35.8403V3.44502H35.9611L20.4888 39.2248H17.9503L2.47799 3.44502H2.59887V42.6094H0Z" fill="#D9D9D9"/>
  <path d="M49.4607 42.6094V0.483512H76.7791V2.84063H52.0596V20.1261H73.9989V22.4833H52.0596V40.2523H76.7791V42.6094H49.4607Z" fill="#D9D9D9"/>
  <path d="M84.9922 42.6094V0.483512H88.0141L111.646 39.3457H111.223V0.483512H113.822V42.6094H110.739L87.1075 3.74721H87.591V42.6094H84.9922Z" fill="#D9D9D9"/>
  <path d="M124.832 42.6094V0.483512H135.832C142.642 0.483512 147.9 2.35712 151.607 6.10433C155.314 9.81124 157.167 15.0694 157.167 21.8789C157.167 28.5674 155.334 33.7047 151.667 37.2908C148 40.8365 142.702 42.6094 135.772 42.6094H124.832ZM127.431 40.1919H135.53C139.64 40.1919 143.105 39.527 145.925 38.1974C148.746 36.8274 150.881 34.7926 152.332 32.093C153.782 29.3531 154.508 25.9283 154.508 21.8184C154.508 17.628 153.762 14.1427 152.271 11.3625C150.821 8.54203 148.706 6.42667 145.925 5.01643C143.145 3.60619 139.761 2.90107 135.772 2.90107H127.431V40.1919Z" fill="#D9D9D9"/>
  <path d="M166.502 42.6094V0.483512H193.82V2.84063H169.101V20.1261H191.04V22.4833H169.101V40.2523H193.82V42.6094H166.502Z" fill="#D9D9D9"/>
  <path d="M212.463 43.0929C208.555 43.0929 205.331 42.0655 202.793 40.0105C200.254 37.9556 198.683 35.1956 198.078 31.7304L200.617 31.126C201.141 34.2688 202.47 36.6663 204.606 38.3182C206.782 39.93 209.421 40.7358 212.523 40.7358C214.457 40.7358 216.17 40.3329 217.661 39.527C219.192 38.7212 220.401 37.6333 221.287 36.2633C222.173 34.8531 222.617 33.2817 222.617 31.5491C222.617 29.5748 222.113 27.9832 221.106 26.7744C220.098 25.5656 218.749 24.5583 217.056 23.7525C215.404 22.9466 213.611 22.1811 211.677 21.4558C209.622 20.6902 207.729 19.8441 205.996 18.9174C204.304 17.9906 202.954 16.8624 201.947 15.5328C200.939 14.1628 200.436 12.4303 200.436 10.335C200.436 8.36071 200.919 6.58784 201.886 5.01643C202.893 3.44502 204.284 2.21609 206.056 1.32966C207.829 0.443219 209.864 0 212.161 0C214.659 0 216.855 0.564096 218.749 1.69229C220.683 2.82048 222.234 4.45233 223.402 6.58784L221.347 7.91749C220.34 6.14462 219.071 4.77467 217.54 3.80765C216.049 2.84063 214.236 2.35712 212.1 2.35712C210.327 2.35712 208.756 2.6996 207.386 3.38458C206.016 4.06955 204.948 5.01643 204.183 6.2252C203.417 7.39369 203.034 8.74349 203.034 10.2746C203.034 11.9266 203.458 13.2966 204.304 14.3845C205.19 15.4321 206.399 16.3386 207.93 17.1042C209.461 17.8698 211.234 18.6353 213.249 19.4009C215.545 20.247 217.58 21.1738 219.353 22.1811C221.126 23.1481 222.536 24.3569 223.584 25.8074C224.672 27.2579 225.216 29.1114 225.216 31.3678C225.216 33.6242 224.651 35.6388 223.523 37.4117C222.435 39.1442 220.924 40.5343 218.99 41.5819C217.097 42.5893 214.921 43.0929 212.463 43.0929Z" fill="#D9D9D9"/>
</svg>
