<svg width="439" height="578" viewBox="0 0 439 578" fill="none" xmlns="http://www.w3.org/2000/svg">
  <path fill-rule="evenodd" clip-rule="evenodd" d="M439.001 577.989L342.865 482.31L342.864 482.286L260 399.546V578L162 481.043V342.266L96.4453 407.561V577.989H0V348.509L96.3311 252.178L0 155.846V0L162 162V97.5703L251.805 8.20996L260 0V384.45L342.773 301.676L342.67 96.3311L438.871 0.195312L439.001 0V577.989ZM259 575.612L259.003 575.615V574.995H259V575.612ZM192.663 311.725L170.312 333.986L170.385 477.729L251.805 558.373V252.202L192.663 311.725ZM263.764 392L340.892 469.011V314.873L263.764 392ZM170.195 100.833L170.229 170.23L251.805 251.805V19.6709L170.195 100.833ZM162.997 97.9814V98.1709H163V97.9785L162.997 97.9814Z" fill="#D9D9D9"/>
</svg>
