<svg width="215" height="45" viewBox="0 0 215 45" fill="none" xmlns="http://www.w3.org/2000/svg">
<path d="M0.223022 43.4735V1.34778H6.14601L20.5304 36.1604H19.7447L34.1896 1.34778H39.9917V43.4735H36.0632V5.88068L36.3049 5.94111L22.1018 39.9681H18.1733L3.90978 5.94111L4.15154 5.88068V43.4735H0.223022Z" fill="#D9D9D9"/>
<path d="M45.6577 43.4735V1.34778H73.2177V4.91366H49.5862V20.2651H70.8002V23.831H49.5862V39.9076H73.2177V43.4735H45.6577Z" fill="#D9D9D9"/>
<path d="M78.8839 43.4735V1.34778H83.1751L105.779 38.3967H104.993V1.34778H108.922V43.4735H104.51L82.0267 6.36419H82.8124V43.4735H78.8839Z" fill="#D9D9D9"/>
<path d="M114.588 43.4735V1.34778H125.951C132.76 1.34778 138.038 3.22138 141.786 6.96857C145.573 10.6755 147.467 15.9336 147.467 22.7431C147.467 29.4316 145.593 34.5689 141.846 38.1549C138.139 41.7007 132.82 43.4735 125.89 43.4735H114.588ZM118.517 39.8472H125.528C129.355 39.8472 132.599 39.2428 135.258 38.034C137.917 36.8253 139.932 34.9517 141.302 32.4132C142.712 29.8748 143.417 26.6111 143.417 22.6222C143.417 18.6332 142.712 15.3293 141.302 12.7102C139.932 10.0912 137.938 8.1572 135.319 6.90814C132.7 5.61878 129.557 4.9741 125.89 4.9741H118.517V39.8472Z" fill="#D9D9D9"/>
<path d="M153.133 43.4735V1.34778H180.693V4.91366H157.061V20.2651H178.275V23.831H157.061V39.9076H180.693V43.4735H153.133Z" fill="#D9D9D9"/>
<path d="M201.227 44.0476C197.117 44.0476 193.753 42.9799 191.134 40.8444C188.515 38.7089 186.923 35.8683 186.359 32.3225L190.227 31.3555C190.711 34.3372 191.94 36.6137 193.914 38.1851C195.928 39.7162 198.406 40.4818 201.348 40.4818C203.08 40.4818 204.632 40.1393 206.002 39.4543C207.412 38.7693 208.52 37.8023 209.326 36.5532C210.132 35.3042 210.534 33.8738 210.534 32.2621C210.534 30.5295 210.071 29.1394 209.144 28.0918C208.218 27.0039 206.989 26.0772 205.458 25.3117C203.927 24.5461 202.194 23.8007 200.26 23.0754C198.084 22.2293 196.13 21.3227 194.397 20.3557C192.665 19.3484 191.295 18.1396 190.288 16.7294C189.321 15.3191 188.837 13.5664 188.837 11.4712C188.837 9.376 189.341 7.54269 190.348 5.97128C191.355 4.35959 192.766 3.09038 194.579 2.16365C196.432 1.23692 198.568 0.77356 200.985 0.77356C203.564 0.77356 205.84 1.3578 207.815 2.52628C209.789 3.69476 211.381 5.40719 212.589 7.66356L209.447 9.5976C208.48 7.90532 207.271 6.59582 205.82 5.66909C204.41 4.74236 202.758 4.279 200.864 4.279C199.253 4.279 197.842 4.58119 196.634 5.18558C195.425 5.78997 194.478 6.63611 193.793 7.72401C193.108 8.77161 192.766 9.98038 192.766 11.3503C192.766 12.8009 193.148 14.0298 193.914 15.0371C194.72 16.0444 195.848 16.9107 197.298 17.6359C198.789 18.3612 200.522 19.0865 202.496 19.8117C204.833 20.6982 206.888 21.6652 208.661 22.7128C210.474 23.7201 211.884 24.9692 212.892 26.46C213.899 27.9508 214.403 29.8043 214.403 32.0203C214.403 34.3573 213.838 36.4324 212.71 38.2455C211.582 40.0587 210.031 41.4891 208.056 42.5367C206.082 43.544 203.806 44.0476 201.227 44.0476Z" fill="#D9D9D9"/>
</svg>
